# xmcd
#
# Track frame offsets:
#	150
#	19793
#	33780
#	57377
#	70157
#	86064
#	108721
#	124728
#	138337
#	153927
#	176815
#	191523
#	207148
#	218923
#	238835
#	261321
#	284524
#	299747
#	315999
#	330055
#
# Disc length: 4665 seconds
#
# Revision: 0
# Processed by: cddbd v1.4PL0 Copyright (c) Steve Scherf et al.
# Submitted via: EasyCDDAExtractor 4.6.9.1
#
DISCID=2d123714
DTITLE=Diane Morin - Pourquoi L'avoir Pris
DYEAR=2002
DGENRE=country
TTITLE0=Aime Moi
TTITLE1=C'est Pas Toi Que J'aime
TTITLE2=Chanson Pour Lydia
TTITLE3=Chanter Ole
TTITLE4=Chere Stephanie
TTITLE5=Ecoute Ton Coeur
TTITLE6=Il Ta Laisser Tomber
TTITLE7=J'aime Le Country
TTITLE8=Je T'offre Mon Coeur
TTITLE9=Je Vous Aime
TTITLE10=Juste Pour Lui
TTITLE11=L'amour A Ses Raison
TTITLE12=Leo Le Papa Du Country
TTITLE13=L'Histoi D'un Enfant
TTITLE14=Maman Tu Me Comprend
TTITLE15=Mon Etoile
TTITLE16=Pourquoi L'avoir Pris
TTITLE17=Regarde Moi
TTITLE18=Tu Me Ment Deja
TTITLE19=Tu N'est Plus La
EXTD=
EXTT0=
EXTT1=
EXTT2=
EXTT3=
EXTT4=
EXTT5=
EXTT6=
EXTT7=
EXTT8=
EXTT9=
EXTT10=
EXTT11=
EXTT12=
EXTT13=
EXTT14=
EXTT15=
EXTT16=
EXTT17=
EXTT18=
EXTT19=
PLAYORDER=
